<svg width="40" height="40" viewBox="0 0 40 40" fill="none" xmlns="http://www.w3.org/2000/svg">
<g clip-path="url(#clip0_1_6485)">
<path d="M40 20C40 8.9543 31.0457 0 20 0C8.9543 0 0 8.9543 0 20C0 31.0457 8.9543 40 20 40C31.0457 40 40 31.0457 40 20Z" fill="#A51C30"/>
<path d="M30.0309 13.1499C28.1961 11.6819 25.9942 10.948 23.6701 10.8257L23.3031 11.1927C25.3826 11.6819 27.2175 12.6605 28.93 14.0061C26.8505 12.9052 24.5263 12.1713 22.0798 11.9266C21.3459 11.8043 20.7342 11.8043 20.0003 11.8043C19.2664 11.8043 18.6547 11.8043 17.9208 11.9266C15.4743 12.1713 13.1502 12.9052 11.0707 14.0061C12.7832 12.6605 14.6181 11.6819 16.6976 11.1927L16.3306 10.8257C14.0064 10.948 11.8046 11.6819 9.96974 13.1499C7.89023 17.0643 6.78932 21.4679 6.66699 25.9939C8.50183 27.9511 11.0707 29.1744 13.7618 29.1744C13.7618 29.1744 14.6181 28.1958 15.2297 27.3394C13.6395 26.9725 12.1716 26.1162 11.193 24.7707C12.0492 25.2599 12.9055 25.7493 13.7618 26.1162C14.8627 26.6055 15.9637 26.8502 17.0646 27.0949C18.0432 27.2171 19.0217 27.3394 20.0003 27.3394C20.9789 27.3394 21.9575 27.2171 22.9361 27.0949C24.037 26.8502 25.1379 26.6055 26.2388 26.1162C27.0952 25.7493 27.9514 25.2599 28.8077 24.7707C27.8291 26.1162 26.3612 26.9725 24.771 27.3394C25.3826 28.1958 26.2388 29.1744 26.2388 29.1744C28.93 29.1744 31.4988 27.9511 33.3337 25.9939C33.2113 21.4679 32.1104 17.0643 30.0309 13.1499ZM15.9637 23.792C14.7404 23.792 13.6395 22.6911 13.6395 21.3456C13.6395 20 14.7404 18.8991 15.9637 18.8991C17.1869 18.8991 18.2878 20 18.2878 21.3456C18.2878 22.6911 17.1869 23.792 15.9637 23.792ZM24.037 23.792C22.8137 23.792 21.7128 22.6911 21.7128 21.3456C21.7128 20 22.8137 18.8991 24.037 18.8991C25.2602 18.8991 26.3612 20 26.3612 21.3456C26.3612 22.6911 25.2602 23.792 24.037 23.792Z" fill="white"/>
</g>
<defs>
<clipPath id="clip0_1_6485">
<rect width="40" height="40" fill="white"/>
</clipPath>
</defs>
</svg>
