<svg width="40" height="40" viewBox="0 0 40 40" fill="none" xmlns="http://www.w3.org/2000/svg">
<path d="M31.93 6H8.07C7.80153 5.9906 7.53391 6.03538 7.28312 6.13167C7.03233 6.22797 6.80351 6.37379 6.61032 6.56046C6.41712 6.74712 6.26351 6.97079 6.15865 7.21812C6.05379 7.46545 5.99984 7.73137 6 8V32C5.99984 32.2686 6.05379 32.5346 6.15865 32.7819C6.26351 33.0292 6.41712 33.2529 6.61032 33.4396C6.80351 33.6262 7.03233 33.772 7.28312 33.8683C7.53391 33.9646 7.80153 34.0094 8.07 34H31.93C32.1985 34.0094 32.4661 33.9646 32.7169 33.8683C32.9677 33.772 33.1965 33.6262 33.3897 33.4396C33.5829 33.2529 33.7365 33.0292 33.8414 32.7819C33.9462 32.5346 34.0002 32.2686 34 32V8C34.0002 7.73137 33.9462 7.46545 33.8414 7.21812C33.7365 6.97079 33.5829 6.74712 33.3897 6.56046C33.1965 6.37379 32.9677 6.22797 32.7169 6.13167C32.4661 6.03538 32.1985 5.9906 31.93 6ZM14.49 29.44H10.26V16.79H14.49V29.44ZM12.37 15.07C12.0682 15.0964 11.7641 15.0596 11.4773 14.9619C11.1905 14.8643 10.9272 14.7079 10.7041 14.5028C10.4811 14.2976 10.3033 14.0483 10.1821 13.7706C10.0609 13.4929 9.99885 13.193 10 12.89C10.0016 12.5848 10.0665 12.2832 10.1905 12.0042C10.3144 11.7253 10.4948 11.4751 10.7203 11.2693C10.9458 11.0636 11.2115 10.9068 11.5005 10.8088C11.7896 10.7108 12.0959 10.6738 12.4 10.7C12.6994 10.6797 12.9997 10.7212 13.2824 10.8218C13.5651 10.9225 13.824 11.0801 14.0433 11.285C14.2625 11.4899 14.4373 11.7376 14.5567 12.0129C14.6762 12.2881 14.7379 12.585 14.7379 12.885C14.7379 13.1851 14.6762 13.4819 14.5567 13.7571C14.4373 14.0324 14.2625 14.2801 14.0433 14.485C13.824 14.6899 13.5651 14.8475 13.2824 14.9482C12.9997 15.0488 12.6994 15.0903 12.4 15.07H12.37ZM29.74 29.44H25.51V22.67C25.51 20.97 24.9 19.82 23.37 19.82C22.8949 19.8209 22.4315 19.9683 22.0432 20.2421C21.6549 20.5159 21.3604 20.9028 21.2 21.35C21.0956 21.6727 21.0482 22.0111 21.06 22.35V29.41H16.83C16.83 29.41 16.88 17.95 16.83 16.76H21.06V18.56C21.4433 17.8966 22.0011 17.351 22.6729 16.9825C23.3446 16.614 24.1045 16.4367 24.87 16.47C27.65 16.47 29.74 18.28 29.74 22.16V29.44Z" fill="#A51C30"/>
</svg>
