<svg width="40" height="40" viewBox="0 0 40 40" fill="none" xmlns="http://www.w3.org/2000/svg">
<path d="M36.6663 9.66677C35.4136 10.2103 34.0887 10.5695 32.733 10.7334C34.1633 9.87897 35.2351 8.53474 35.7497 6.95011C34.4056 7.75021 32.9343 8.31393 31.3997 8.61677C30.3739 7.50439 29.008 6.76393 27.516 6.51152C26.0241 6.25912 24.4906 6.50904 23.156 7.22209C21.8214 7.93514 20.7612 9.07099 20.1417 10.4515C19.5223 11.832 19.3785 13.3791 19.733 14.8501C17.0154 14.7126 14.3571 14.005 11.9308 12.7732C9.50445 11.5414 7.36442 9.81293 5.64967 7.70011C5.04824 8.75039 4.73221 9.93981 4.73301 11.1501C4.73088 12.2741 5.0067 13.3811 5.53593 14.3727C6.06516 15.3643 6.83137 16.2096 7.76634 16.8334C6.67964 16.8039 5.61615 16.5123 4.66634 15.9834V16.0668C4.67449 17.6416 5.22633 19.1653 6.22853 20.38C7.23073 21.5948 8.62177 22.4262 10.1663 22.7334C9.57177 22.9144 8.95447 23.0098 8.33301 23.0168C7.90282 23.0117 7.47371 22.9727 7.04967 22.9001C7.48952 24.2548 8.34071 25.4387 9.4848 26.287C10.6289 27.1354 12.009 27.606 13.433 27.6334C11.0283 29.5256 8.05948 30.5582 4.99967 30.5668C4.44257 30.5686 3.8859 30.5352 3.33301 30.4668C6.45706 32.4839 10.0977 33.5546 13.8163 33.5501C16.3825 33.5768 18.9282 33.0918 21.3049 32.1236C23.6815 31.1553 25.8414 29.7232 27.6583 27.9109C29.4753 26.0986 30.9129 23.9424 31.8873 21.5683C32.8616 19.1941 33.3531 16.6497 33.333 14.0834C33.333 13.8001 33.333 13.5001 33.333 13.2001C34.6408 12.2248 35.7688 11.0291 36.6663 9.66677Z" fill="#A51C30"/>
</svg>
